<svg height="32" viewBox="0 0 32 32" width="32" xmlns="http://www.w3.org/2000/svg"><g fill="none" fill-rule="evenodd"><path d="m0 0h32v32h-32z"/><path d="m15.9783613.64c-8.49239772.02166428-15.35997446 6.88924102-15.33831018 15.3816387.02166428 8.4923977 6.88924098 15.3599745 15.38163878 15.3383102 8.4707334-.0216643 15.3383101-6.889241 15.3383101-15.3599744-.0216643-8.4923978-6.889241-15.3599745-15.3816387-15.3599745zm10.1822115 7.08421952c1.8847924 2.31807798 2.9463421 5.19942718 2.9680064 8.18909778-.4332856-.0866571-4.7878059-.9748926-9.1423261-.4116213-.0866571-.2383071-.1949785-.4549499-.2816357-.6715926-.2599713-.6499285-.5632713-1.2781926-.8665712-1.9064567 4.8311344-2.014778 7.0192267-4.83113444 7.3225266-5.19942718zm-10.1822115-4.83113441c3.2063134 0 6.3043055 1.16987111 8.7090405 3.29297054-.2383071.34662851-2.2097566 2.98967062-6.889241 4.74447725-1.473171-2.6647064-3.097992-5.22109141-4.8961273-7.69081931.9965569-.2166428 2.0364423-.34662848 3.0763278-.34662848zm-5.5893842 1.25652823c1.7548066 2.44806365 3.3796276 4.98278436 4.874463 7.60416226-3.9645633 1.0398854-8.03744791 1.5598281-12.15366108 1.6031567.84490692-4.05122036 3.55294188-7.45251229 7.27919808-9.20731896zm-7.53916943 11.87202536c0-.1299856 0-.2599713 0-.4116213.56327127 0 6.95423387.0866571 13.51851063-1.8631281.389957.7365856.7365855 1.4948354 1.0615497 2.2314208-.1733142.0433286-.3466284.0866572-.5199427.15165-6.7809196 2.1880923-10.37719007 8.1457692-10.68048997 8.665712-2.18809227-2.4047351-3.40129194-5.5243914-3.37962766-8.7740334zm13.12855363 13.1068894c-2.9246778 0-5.7626985-.9748926-8.05911215-2.7730279.23830707-.4766141 2.90301355-5.6110485 10.31219725-8.1890978 1.1915354 3.2279778 2.1447637 6.5426126 2.9030135 9.9222402-.0216643.0216643-3.3362991 1.0398855-5.1560986 1.0398855zm7.3441909-2.2314209c-.5849356-3.1846491-1.4298425-6.3259697-2.5563851-9.3589689 2.7296993-.4116213 5.5243914-.2166428 8.1890979.5632713-.5849357 3.5746061-2.621378 6.7592553-5.6327128 8.7956976z" fill="#fff" fill-rule="nonzero"/></g></svg>