<svg height="21" viewBox="0 0 28 21" width="28" xmlns="http://www.w3.org/2000/svg"><g fill="none" fill-rule="evenodd" transform="translate(-2 -6)"><path d="m0 0h32v32h-32z" fill="#d8d8d8" opacity="0"/><path d="m27.375 6c.7291664 0 1.3489586.25520861 1.859375.765625s.765625 1.13020861.765625 1.859375v15.75c0 .7291664-.2552086 1.3489586-.765625 1.859375s-1.1302086.765625-1.859375.765625h-22.75c-.72916639 0-1.34895861-.2552086-1.859375-.765625s-.765625-1.1302086-.765625-1.859375v-15.75c0-.72916639.25520861-1.34895861.765625-1.859375s1.13020861-.765625 1.859375-.765625zm0 2.625h-22.75v2.2421875c1.27604139 1.0208336 3.73697889 2.953125 7.3828125 5.796875l.4921875.4375c.7291664.6197914 1.3125 1.0572914 1.75 1.3125.6927086.4739586 1.2760414.7109375 1.75.7109375s1.0572914-.2369789 1.75-.7109375c.4375-.2552086 1.0208336-.6927086 1.75-1.3125l.4921875-.4375c3.6458336-2.8072914 6.1067711-4.7395836 7.3828125-5.796875zm-22.75 15.75h22.75v-10.171875l-6.34375 5.03125c-.9114586.765625-1.6588539 1.3125-2.2421875 1.640625-.984375.5833336-1.9140625.875-2.7890625.875s-1.8229164-.2916664-2.84375-.875c-.546875-.328125-1.2942711-.875-2.2421875-1.640625l-6.2890625-5.03125z" fill="#fff"/></g></svg>