<svg height="24" viewBox="0 0 24 24" width="24" xmlns="http://www.w3.org/2000/svg"><g fill="none" fill-rule="evenodd" transform="translate(-4 -4)"><path d="m0 0h32v32h-32z" fill="#d8d8d8" opacity="0"/><path d="m7.488 4.7328c-1.5232 0-2.7552 1.232-2.7552 2.7776 0 1.5232 1.232 2.7552 2.7552 2.7552s2.7552-1.232 2.7552-2.7776c0-1.5232-1.232-2.7552-2.7328-2.7552zm-2.3968 22.5344h4.704v-14.9856h-4.704zm16.9568-15.4784s-3.7184-.2688-4.6592 2.5088v-2.0384h-4.704v14.9856h4.704v-8.0192c0-.2688.0896-3.2256 2.8448-3.2256 2.576 0 2.4192 3.4944 2.4192 3.4944v7.728h4.592v-8.6912c0 .0448.6048-6.7424-5.1968-6.7424z" fill="#fff" fill-rule="nonzero"/></g></svg>